<svg fill="none" viewBox="0 0 131 137" xmlns="http://www.w3.org/2000/svg">
  <path d="m1.875 12.5c1.0284-1.6217 2.6643-2.75 4.5972-2.75 0.59981 0 0.72892-0.04217 1 0.5 0.42672 0.8534 0.54078 1.854 1.0347 2.6875 1.3438 2.2676 3.1335 2.5625 5.6181 2.5625 1.049 0 1.822 0.3665 2.7153 0.8958 1.4427 0.855 3.0153 1.5253 4.6597 1.8542" stroke="#FF0FCA" stroke-linecap="round" stroke-opacity=".1" stroke-width="3"/>
  <path d="m112.08 98.5c-0.782-1.9208-1.768-4.6338-0.375-6.5 1.065-1.4264 2.225-1.625 3.875-1.625 1.466 0 2.147-0.9278 3-2.0278 0.735-0.9474 1.409-1.974 2.063-2.9791 0.342-0.5262 0.514-1.0388 1.062-1.3681" stroke="#FF0FCA" stroke-linecap="round" stroke-opacity=".1" stroke-width="3"/>
  <path d="m10 70c1.1216 0 2.619 0.0764 3.25 1.1806 0.1864 0.3261 1.2757 0.3194 1.625 0.3194" stroke="#FF0FCA" stroke-linecap="round" stroke-opacity=".1" stroke-width="3"/>
  <path d="m42.153 87c-1.4346 1.4658-2.8691 2.9315-4.3036 4.3973-0.835 0.8532-2.2671 2.2384-2.289 3.5899-0.0175 1.074 2.2999 1.5309 1.954 2.6896-0.178 0.5959-0.117 1.184-0.3937 1.7525-0.2981 0.6123-0.7056 1.1183-1.1809 1.6043-0.2398 0.245-0.4729 0.548-0.7481 0.754-0.1921 0.144-0.4831 0.165-0.6546 0.321-0.5788 0.53-0.516 0.732-0.249 1.506" stroke="#0F9AFF" stroke-linecap="round" stroke-opacity=".1" stroke-width="3"/>
  <path d="m128.88 124.38c-1.06 0-2.941-0.354-3.847 0.25-0.41 0.273-0.466 0.476-0.597 0.944-0.25 0.892-0.609 1.737-0.924 2.605-0.563 1.547-1.284 2.821-2.701 3.701-1.49 0.925-3.378 0.75-5.056 0.75" stroke="#0F9AFF" stroke-linecap="round" stroke-opacity=".1" stroke-width="3"/>
  <path d="m46 44.31c1.1505-0.156 2.2758-0.25 3.4375-0.25 1.0436 0 2.3061-0.2012 3.3056 0.132 2.0535 0.6845 1.9303 3.0049 2.5694 4.6666 0.1375 0.3575 0.2021 0.4514 0.5903 0.4514h3.0972c1.6212 0 3.5231 0.3316 4.875-0.75" stroke="#0F9AFF" stroke-linecap="round" stroke-opacity=".1" stroke-width="3"/>
  <path d="m59.75 4.75c0.2803-1.2768 1.0254-2.2382 2.3889-2.4861 0.4342-0.07894 1.8976-0.19959 2.2361 0.13889 1.3303 1.3303 1.246 3.057 1.9306 4.5972 0.2064 0.46458 0.1393 1.5 0.8194 1.5 0.5463 0 0.7094-0.90638 1.2778-1.125 1.9338-0.74377 5.5676 0.65896 6.5972 2.375" stroke="#0FFF44" stroke-linecap="round" stroke-opacity=".1" stroke-width="3"/>
  <path d="m129.5 27c-2.217 0-4.365 0.6052-5.5 2.75-1.069 2.0183-0.75 4.3957-0.75 6.625 0 0.7483 1.356 3.4952 0.458 4-0.743 0.4184-2.161 0.8353-3.014 0.875-0.434 0.0202-1.509 0.1296-1.694 0.5" stroke="#0FFF44" stroke-linecap="round" stroke-opacity=".1" stroke-width="3"/>
  <path d="m6.25 126.25c0-1.906 0.92043-3 2.9444-3 1.3071 0 2.3078-0.134 3.4167 0.5 0.7055 0.403 0.9523 1.203 1.2639 1.889 0.2222 0.489 0.3319 2.797 0.875 2.861 0.6263 0.074 2.2136 1.095 2.25 1.75 0.047 0.847-1.7905 1.79-2.375 2.375-1.7041 1.704-4.3247 2.375-6.625 2.375" stroke="#0FFF44" stroke-linecap="round" stroke-opacity=".1" stroke-width="3"/>
  <path d="m85 58c1.3724 3.0615 3.7547 4.1616 6.5556 5.8056 1.8627 1.0933 3.0133 1.971 4 3.9444 1.16 2.3201-0.7258 3.7813-2.5556 4.75-1.7052 0.9028-2.4874 4.3226-1.5556 6 0.4948 0.8905 1.8506 0.5842 2.5556 1.25 1.0624 1.0034 1.25 2.3352 1.25 3.75" stroke="#FF9F0F" stroke-linecap="round" stroke-opacity=".1" stroke-width="3"/>
  <path d="m95.75 4.5c0 2.2392-0.8305 6.1305 1.1389 7.6944 1.2235 0.9716 2.3647 2.3162 2.8611 3.8056" stroke="#FF9F0F" stroke-linecap="round" stroke-opacity=".1" stroke-width="3"/>
  <path d="m48 118c2.4531 0 4.2951-0.206 5.25 2.5 0.9255 2.622 1 4.876 1 7.625 0 0.924 4.8257 0.125 5.6111 0.125 2.1853 0 2.113 3.482 2.3889 5" stroke="#FF9F0F" stroke-linecap="round" stroke-opacity=".1" stroke-width="3"/>
</svg>
