<svg fill="none" viewBox="0 0 131 137" xmlns="http://www.w3.org/2000/svg"><path d="m2 13 4-3h1l2 3c1 2 3 3 5 3h3l4 2m91 81c-1-2-2-5 0-7l4-2 3-2 2-3 1-1M10 70l3 1h2" stroke="#FF0FCA" stroke-linecap="round" stroke-opacity=".1" stroke-width="3"/><path d="m42 87-4 4-2 4 2 3-1 1-1 2-1 1s0 0 0 0l-1 2m95 20-4 1-1 1v2l-3 4-5 1M46 44h7c2 1 2 3 2 5h9" stroke="#0F9AFF" stroke-linecap="round" stroke-opacity=".1" stroke-width="3"/><path d="M60 5c0-2 1-2 2-3h2c2 2 2 3 2 5l1 1 1-1c2 0 6 1 7 3m55 17c-3 0-5 1-6 3l-1 6 1 4-3 1-2 1M6 126c0-2 1-3 3-3l4 1 1 2 1 2 2 2-2 3-7 2" stroke="#0FFF44" stroke-linecap="round" stroke-opacity=".1" stroke-width="3"/><path d="M85 58c1 3 4 4 7 6l4 4c1 2-1 4-3 5-2 0-2 4-2 6l3 1 1 4m1-79c0 2-1 6 1 7l3 4M48 118c2 0 4 0 5 3l1 7h6c2 0 2 4 2 5" stroke="#FF9F0F" stroke-linecap="round" stroke-opacity=".1" stroke-width="3"/></svg>